<?xml version="1.0" standalone="no"?>
<!DOCTYPE svg PUBLIC "-//W3C//DTD SVG 1.1//EN" "http://www.w3.org/Graphics/SVG/1.1/DTD/svg11.dtd">
<svg xmlns="http://www.w3.org/2000/svg" xmlns:bx="https://boxy-svg.com" preserveAspectRatio="xMidYMid meet" data-bbox="93.746 93.748 3000 976.346" viewBox="93.746 93.748 3000 976.346" height="976.3460083007812" width="3000" data-type="shape" role="presentation" aria-hidden="true" aria-label="">
  <defs>
    <style bx:fonts="Gwendolyn">@import url(family%3DKolker%20Brush%2Cwght%400%2C400%3B0%2C700%26amp%3Bdisplay%3Dswap);</style>
  </defs>
  <g>
    <g xmlns="http://www.w3.org/2000/svg">
      <path d="M902.641 406.883c-8.324 0-13.874 5.55-13.874 13.875V896.66c0 80.473-65.212 144.297-145.685 144.297H267.18c-80.473 0-145.684-65.211-145.684-145.685V420.758c0-80.474 65.21-145.685 145.684-145.685h475.903c22.2 0 43.012 4.163 62.436 13.875 6.938 2.775 15.263 0 18.037-6.937 2.775-6.938 0-15.263-6.937-18.038-23.587-11.1-48.561-16.65-73.536-16.65H267.18c-95.735 0-173.434 77.7-173.434 173.435V896.66c0 95.735 77.699 173.434 173.434 173.434h475.903c95.736 0 173.434-77.699 173.434-173.434V420.758c0-8.325-6.937-13.875-13.875-13.875z"/>
      <path d="M1024.739 96.09c-6.937-4.163-15.262-2.776-19.425 4.162L519.7 848.099 236.655 551.18c-5.55-5.55-13.875-5.55-19.425 0-5.55 5.55-5.55 13.875 0 19.425L512.762 880.01c2.775 2.775 6.937 4.162 9.712 4.162h1.388c4.162 0 8.324-2.775 9.712-6.937l495.327-763.11c4.163-5.55 2.775-13.874-4.162-18.037z"/>
    </g>
    <path d="m1437.71 396.658-86.325 193.396h-46.311l-86.325-193.396h52.98l56.315 129.671 56.685-129.671h52.98zm123.373-2.594c43.717 0 104.107 32.974 92.622 118.187H1513.66c6.669 24.081 26.675 36.678 52.61 36.678 24.081 0 33.344-5.557 47.052-12.967l29.269 28.528c-16.673 17.413-40.384 29.269-78.174 29.269-48.164 0-104.478-32.974-104.478-99.292 0-67.43 57.426-100.403 101.144-100.403zm0 45.2c-19.266 0-39.643 11.856-46.682 35.567h92.622c-5.927-23.711-27.045-35.567-45.94-35.567zm246.005-44.83c4.817 0 9.263 0 14.079 1.112v50.757c-4.446-1.111-8.892-1.111-12.597-1.111-35.567 0-64.836 25.564-68.17 62.613v82.249h-52.98V397.398h52.98v48.164c8.521-29.268 31.862-51.127 66.688-51.127zm200.436 2.224h52.98l-117.816 263.789h-52.98l35.196-77.062-83.36-186.727h52.98l56.315 129.671zm195.99-2.223c36.678 0 72.986 24.081 72.986 84.842v110.777h-52.98V482.982c0-31.492-12.226-42.236-32.603-42.236-28.158 0-44.83 26.675-48.905 40.013v109.295h-52.98V328.117h52.98v104.849c3.705-10.004 24.452-38.531 61.501-38.531zm203.77-.37c43.717 0 100.773 32.973 100.773 100.402s-57.056 99.292-100.774 99.292-101.144-31.863-101.144-99.292 57.426-100.403 101.144-100.403zm0 47.051c-24.083 0-49.647 18.154-49.647 53.351 0 34.085 25.564 52.24 49.646 52.24 23.712 0 49.646-18.155 49.646-52.24 0-35.197-25.934-53.35-49.646-53.35zm385.31-46.681c40.012 0 76.32 25.934 76.32 90.4v105.219h-52.98V485.946c0-26.676-12.226-45.2-39.642-45.2-24.823 0-40.384 21.118-45.2 40.754v108.554h-52.98V485.946c0-26.676-16.672-45.2-39.643-45.2-25.934 0-41.124 18.524-45.2 40.754v108.554h-52.98V397.398h52.98v37.05c1.112-10.004 20.007-40.013 58.538-40.013 27.416 0 54.833 14.82 69.652 43.347 5.187-12.226 27.416-43.347 71.134-43.347zm207.104-.37c43.717 0 104.107 32.973 92.622 118.186h-140.045c6.669 24.081 26.675 36.678 52.61 36.678 24.081 0 33.344-5.557 47.052-12.967l29.269 28.528c-16.673 17.413-40.384 29.269-78.174 29.269-48.164 0-104.478-32.974-104.478-99.292 0-67.43 57.426-100.403 101.144-100.403zm0 45.199c-19.266 0-39.643 11.856-46.682 35.567h92.622c-5.927-23.711-27.045-35.567-45.94-35.567z"/>
    
	<g id="svgGroup" transform="translate(1600,650)" stroke-linecap="round" fill-rule="evenodd" font-size="9pt" stroke="#48466d" stroke-width="0.25mm" fill="#48466d" style="stroke:#48466d;stroke-width:0.25mm;fill:#48466d"><path d="M 124.6 373.1 L 126.7 368.9 Q 134.4 376.6 137.55 385.35 Q 140.7 394.1 146.65 400.4 A 16.899 16.899 0 0 0 152.634 404.361 Q 157.882 406.512 165.878 406.685 A 65.646 65.646 0 0 0 167.3 406.7 Q 170.8 406.7 173.6 406 L 179.2 404.6 Q 185.495 406.698 198.081 396.565 A 98.39 98.39 0 0 0 198.1 396.55 A 197.049 197.049 0 0 0 210.553 385.568 Q 216.467 379.917 222.595 373.27 A 321.674 321.674 0 0 0 224.35 371.35 A 342.607 342.607 0 0 0 239.325 353.725 A 275.493 275.493 0 0 0 248.15 341.95 A 159.413 159.413 0 0 0 252.138 336.057 Q 257.695 327.402 258.786 322.552 A 11.533 11.533 0 0 0 259 321.3 Q 270.9 305.2 280.7 287.35 A 7053.504 7053.504 0 0 0 297.314 256.916 A 6403.879 6403.879 0 0 0 299.6 252.7 L 300.3 243.6 L 306.6 240.8 L 305.9 239.4 L 305.9 228.9 L 322.7 199.5 L 322 196.7 Q 304.5 218.4 285.95 241.15 Q 267.4 263.9 248.5 285.6 A 21.887 21.887 0 0 1 248.434 285.665 A 18.389 18.389 0 0 1 238.7 290.85 Q 233.1 291.9 227.5 291.9 A 27.02 27.02 0 0 1 220.753 291.109 A 17.834 17.834 0 0 1 210.7 284.55 Q 205.1 277.2 205.1 266.7 Q 205.1 253.4 210.35 241.15 A 193.751 193.751 0 0 1 219.194 223.077 A 170.927 170.927 0 0 1 221.9 218.4 L 221.2 216.3 A 27.722 27.722 0 0 0 226.659 209.68 Q 228.547 206.546 229.95 202.65 Q 233.1 193.9 237.3 187.6 A 332.969 332.969 0 0 0 202.785 215.614 A 365.402 365.402 0 0 0 200.55 217.7 Q 182.7 234.5 165.2 250.6 L 164.5 249.2 A 2.999 2.999 0 0 1 164.826 248.058 Q 166.119 245.199 172.55 237.65 A 333.534 333.534 0 0 1 179.178 230.12 Q 185.194 223.475 192.85 215.6 Q 205.1 203 218.05 190.05 A 2320.462 2320.462 0 0 1 228.845 179.322 Q 233.792 174.44 238.24 170.119 A 1318.639 1318.639 0 0 1 241.15 167.3 Q 249.441 159.294 253.295 155.96 A 52.01 52.01 0 0 1 254.8 154.7 L 279.3 148.4 Q 282.296 147.202 288.88 149.849 A 53.316 53.316 0 0 1 291.2 150.85 Q 299.6 154.7 299.6 158.9 A 7.55 7.55 0 0 1 299.106 161.403 Q 297.805 165.056 293.079 170.594 A 79.594 79.594 0 0 1 292.6 171.15 A 535.678 535.678 0 0 1 289.319 174.891 Q 284.954 179.817 282.366 182.432 A 70.327 70.327 0 0 1 282.1 182.7 L 281.4 182.7 L 282.8 185.5 L 267.4 200.9 L 266.7 205.1 L 261.8 206.5 A 20.527 20.527 0 0 0 260.749 207.642 Q 260.26 208.211 259.735 208.888 A 46.803 46.803 0 0 0 258.65 210.35 A 5.117 5.117 0 0 0 257.678 213.396 Q 257.678 214.683 258.245 216.159 A 11.023 11.023 0 0 0 258.3 216.3 A 25.977 25.977 0 0 0 255.394 217.544 Q 250.6 219.986 250.6 223.3 A 13.345 13.345 0 0 0 250.677 224.689 Q 250.752 225.41 250.902 226.205 A 22.639 22.639 0 0 0 250.95 226.45 Q 251.3 228.2 252 230.3 L 245 234.5 L 246.4 236.6 Q 242.9 238 242.9 244.3 L 243.6 251.3 L 245 253.4 A 21.932 21.932 0 0 1 244.46 258.347 A 18.776 18.776 0 0 1 243.6 261.1 Q 242.2 264.6 241.5 268.8 L 242.9 270.2 A 11.129 11.129 0 0 0 246.456 269.056 Q 251.711 266.498 259.958 258.404 A 161.483 161.483 0 0 0 262.5 255.85 A 275.119 275.119 0 0 0 274.405 242.767 Q 280.275 235.911 286.393 227.995 A 466.764 466.764 0 0 0 290.5 222.6 Q 305.2 203 316.75 185.5 Q 328.108 168.291 331.681 160.559 A 45.314 45.314 0 0 0 331.8 160.3 Q 335.3 154 338.8 148.4 Q 341.992 143.293 348.096 142.843 A 16.406 16.406 0 0 1 349.3 142.8 L 355.6 142.8 A 21.065 21.065 0 0 1 361.081 143.569 Q 363.483 144.216 366.048 145.407 A 40.381 40.381 0 0 1 367.85 146.3 A 14.173 14.173 0 0 1 371.463 148.937 Q 374.5 152.07 374.5 156.8 A 9.634 9.634 0 0 1 374.251 158.713 Q 373.548 162.024 370.864 168.804 A 242.038 242.038 0 0 1 368.9 173.6 Q 363.3 186.9 355.25 205.1 Q 347.2 223.3 338.1 241.5 A 2273.404 2273.404 0 0 1 331.57 254.461 Q 328.973 259.574 326.58 264.209 A 1251.735 1251.735 0 0 1 322 273 Q 316.041 284.321 313.126 288.542 A 22.611 22.611 0 0 1 312.2 289.8 Q 311.664 293.016 310.307 298.488 A 302.501 302.501 0 0 1 309.4 302.05 A 30.779 30.779 0 0 1 308.219 305.703 Q 306.654 309.615 304.343 311.413 A 7.448 7.448 0 0 1 303.1 312.2 Q 292.6 331.8 278.95 348.25 Q 265.3 364.7 252.7 382.9 L 240.8 388.5 Q 238 391.3 235.9 394.45 A 17.024 17.024 0 0 1 231.153 399.159 A 19.964 19.964 0 0 1 230.3 399.7 L 228.2 399.7 A 157.589 157.589 0 0 1 214.938 411.595 A 130.754 130.754 0 0 1 206.85 417.55 A 41.538 41.538 0 0 1 191.787 423.756 A 58.685 58.685 0 0 1 179.9 424.9 A 44.961 44.961 0 0 1 164.013 421.892 A 60.656 60.656 0 0 1 154.35 417.2 Q 141.4 409.5 133 397.6 A 48.723 48.723 0 0 1 127.112 386.672 A 38.285 38.285 0 0 1 124.6 373.1 Z M 301.7 375.9 L 303.8 371.7 A 54.294 54.294 0 0 1 312.864 385.137 A 50.482 50.482 0 0 1 314.3 388.5 Q 317.8 397.6 323.75 403.55 A 16.8 16.8 0 0 0 329.434 407.172 Q 335.205 409.5 344.4 409.5 Q 347.2 409.5 350 408.8 L 355.6 407.4 A 7.428 7.428 0 0 0 357.624 407.762 Q 363.828 408.041 374.85 399.7 Q 387.8 389.9 401.45 374.85 A 342.607 342.607 0 0 0 416.425 357.225 A 275.493 275.493 0 0 0 425.25 345.45 A 159.413 159.413 0 0 0 429.238 339.557 Q 434.795 330.902 435.886 326.052 A 11.533 11.533 0 0 0 436.1 324.8 Q 447.3 308 457.1 290.5 Q 466.9 273 476.7 256.2 L 477.4 247.1 L 483.7 243.6 L 482.3 242.9 L 483.7 236.6 L 482.3 231.7 A 19.955 19.955 0 0 1 477.906 234.989 A 25.04 25.04 0 0 1 475.3 236.25 Q 471.1 238 467.6 240.8 L 466.9 247.1 A 43.017 43.017 0 0 0 455.086 251.609 A 57.259 57.259 0 0 0 447.65 256.55 A 780.537 780.537 0 0 1 430.239 269.716 A 712.458 712.458 0 0 1 429.1 270.55 A 34.579 34.579 0 0 1 418.265 275.972 A 31.444 31.444 0 0 1 409.5 277.2 A 59.223 59.223 0 0 1 405.662 277.064 Q 401.959 276.823 397.25 276.15 A 38.905 38.905 0 0 1 393.225 275.372 Q 388.861 274.269 386.4 272.3 A 66.44 66.44 0 0 1 381.669 271.036 Q 376.994 269.586 374.115 267.751 A 16.232 16.232 0 0 1 373.1 267.05 Q 368.9 263.9 367.5 254.8 L 370.3 245.7 L 368.2 240.1 Q 371.7 229.6 373.45 224.7 Q 375.2 219.8 379.05 215.95 Q 381.975 213.025 387.931 208.281 A 307.016 307.016 0 0 1 392 205.1 A 7.363 7.363 0 0 1 395.367 200.138 A 9.163 9.163 0 0 1 395.85 199.85 Q 399 198.1 401.8 197.4 L 402.5 193.9 L 409.5 185.5 L 411.6 186.9 L 415.8 180.6 A 28.487 28.487 0 0 1 421.583 177.372 A 23.965 23.965 0 0 1 425.95 176.05 A 33.673 33.673 0 0 0 436.062 172.222 A 37.58 37.58 0 0 0 436.1 172.2 Q 437.27 165.763 443.088 163.484 A 16.149 16.149 0 0 1 445.55 162.75 Q 450.003 161.782 452.422 159.635 A 8.208 8.208 0 0 0 455 155.4 L 457.8 155.4 L 469.7 147.7 L 473.9 149.8 L 483.7 143.5 Q 487.9 143.5 491.75 142.8 A 43.458 43.458 0 0 1 496.765 142.175 A 36.815 36.815 0 0 1 499.1 142.1 L 501.9 143.5 A 129.64 129.64 0 0 0 490.809 148.012 Q 484.801 150.763 478.169 154.399 A 270.468 270.468 0 0 0 469.7 159.25 A 272.596 272.596 0 0 0 434.618 184.226 A 297.697 297.697 0 0 0 434.35 184.45 A 155.047 155.047 0 0 0 413.991 204.839 A 133.833 133.833 0 0 0 406 215.6 A 72.866 72.866 0 0 0 398.543 229.775 A 53.676 53.676 0 0 0 394.8 249.2 A 18.147 18.147 0 0 0 395.519 254.544 Q 397.972 262.5 408.8 262.5 A 46.353 46.353 0 0 0 423.307 260.064 Q 428.898 258.228 434.677 255.009 A 78.873 78.873 0 0 0 435.05 254.8 Q 448.7 247.1 459.9 235.9 A 105.304 105.304 0 0 0 467.689 227.257 Q 473.014 220.598 476 214.2 L 487.9 204.4 L 494.2 194.6 Q 499.1 193.9 501.2 186.2 Q 503.3 178.5 505.75 169.05 A 41.627 41.627 0 0 1 511.714 155.78 A 39.299 39.299 0 0 1 514.15 152.6 Q 519.744 146.019 530.598 145.625 A 38.691 38.691 0 0 1 532 145.6 Q 538.3 145.6 544.6 149.1 Q 550.9 152.6 550.9 160.3 Q 550.9 163.12 547.491 172.304 A 251.474 251.474 0 0 1 545.65 177.1 Q 542.041 186.244 536.942 197.704 A 867.32 867.32 0 0 1 532 208.6 Q 523.6 226.8 514.85 244.65 Q 507.33 259.99 500.845 272.228 A 671.992 671.992 0 0 1 498.75 276.15 A 466.238 466.238 0 0 1 495.752 281.636 Q 491.734 288.863 489.535 292.032 A 23.543 23.543 0 0 1 488.6 293.3 Q 488.064 296.516 486.913 301.988 A 546.791 546.791 0 0 1 486.15 305.55 A 27.49 27.49 0 0 1 485.204 308.933 Q 483.932 312.5 481.923 314.067 A 5.74 5.74 0 0 1 480.2 315 Q 469 334.6 455.7 351.4 Q 442.4 368.2 429.8 386.4 L 417.2 392 Q 415.1 394.8 412.65 397.6 A 23.966 23.966 0 0 1 408.181 401.548 A 28.012 28.012 0 0 1 406.7 402.5 L 404.6 401.8 A 116.953 116.953 0 0 1 392.266 414.02 A 96.805 96.805 0 0 1 383.95 420.35 A 41.538 41.538 0 0 1 368.887 426.556 A 58.685 58.685 0 0 1 357 427.7 A 44.279 44.279 0 0 1 340.069 424.224 A 58.458 58.458 0 0 1 331.8 420 Q 319.2 412.3 310.45 400.4 A 48.45 48.45 0 0 1 304.488 389.901 A 37.029 37.029 0 0 1 301.7 375.9 Z M 485.1 375.9 L 487.2 371.7 A 54.294 54.294 0 0 1 496.264 385.137 A 50.482 50.482 0 0 1 497.7 388.5 Q 501.2 397.6 507.15 403.55 A 16.8 16.8 0 0 0 512.834 407.172 Q 518.605 409.5 527.8 409.5 Q 530.6 409.5 533.4 408.8 L 539 407.4 A 7.428 7.428 0 0 0 541.024 407.762 Q 547.228 408.041 558.25 399.7 Q 571.2 389.9 584.85 374.85 A 342.607 342.607 0 0 0 599.825 357.225 A 275.493 275.493 0 0 0 608.65 345.45 A 159.413 159.413 0 0 0 612.638 339.557 Q 618.195 330.902 619.286 326.052 A 11.533 11.533 0 0 0 619.5 324.8 Q 630.7 308 640.5 290.5 Q 650.3 273 660.1 256.2 L 660.8 247.1 L 667.1 243.6 L 665.7 242.9 L 667.1 236.6 L 665.7 231.7 A 19.955 19.955 0 0 1 661.306 234.989 A 25.04 25.04 0 0 1 658.7 236.25 Q 654.5 238 651 240.8 L 650.3 247.1 A 43.017 43.017 0 0 0 638.486 251.609 A 57.259 57.259 0 0 0 631.05 256.55 A 780.537 780.537 0 0 1 613.639 269.716 A 712.458 712.458 0 0 1 612.5 270.55 A 34.579 34.579 0 0 1 601.665 275.972 A 31.444 31.444 0 0 1 592.9 277.2 A 59.223 59.223 0 0 1 589.062 277.064 Q 585.359 276.823 580.65 276.15 A 38.905 38.905 0 0 1 576.625 275.372 Q 572.261 274.269 569.8 272.3 A 66.44 66.44 0 0 1 565.069 271.036 Q 560.394 269.586 557.515 267.751 A 16.232 16.232 0 0 1 556.5 267.05 Q 552.3 263.9 550.9 254.8 L 553.7 245.7 L 551.6 240.1 Q 555.1 229.6 556.85 224.7 Q 558.6 219.8 562.45 215.95 Q 565.375 213.025 571.331 208.281 A 307.016 307.016 0 0 1 575.4 205.1 A 7.363 7.363 0 0 1 578.767 200.138 A 9.163 9.163 0 0 1 579.25 199.85 Q 582.4 198.1 585.2 197.4 L 585.9 193.9 L 592.9 185.5 L 595 186.9 L 599.2 180.6 A 28.487 28.487 0 0 1 604.983 177.372 A 23.965 23.965 0 0 1 609.35 176.05 A 33.673 33.673 0 0 0 619.462 172.222 A 37.58 37.58 0 0 0 619.5 172.2 Q 620.67 165.763 626.488 163.484 A 16.149 16.149 0 0 1 628.95 162.75 Q 633.403 161.782 635.822 159.635 A 8.208 8.208 0 0 0 638.4 155.4 L 641.2 155.4 L 653.1 147.7 L 657.3 149.8 L 667.1 143.5 Q 671.3 143.5 675.15 142.8 A 43.458 43.458 0 0 1 680.165 142.175 A 36.815 36.815 0 0 1 682.5 142.1 L 685.3 143.5 A 129.64 129.64 0 0 0 674.209 148.012 Q 668.201 150.763 661.569 154.399 A 270.468 270.468 0 0 0 653.1 159.25 A 272.596 272.596 0 0 0 618.018 184.226 A 297.697 297.697 0 0 0 617.75 184.45 A 155.047 155.047 0 0 0 597.391 204.839 A 133.833 133.833 0 0 0 589.4 215.6 A 72.866 72.866 0 0 0 581.943 229.775 A 53.676 53.676 0 0 0 578.2 249.2 A 18.147 18.147 0 0 0 578.919 254.544 Q 581.372 262.5 592.2 262.5 A 46.353 46.353 0 0 0 606.707 260.064 Q 612.298 258.228 618.077 255.009 A 78.873 78.873 0 0 0 618.45 254.8 Q 632.1 247.1 643.3 235.9 A 105.304 105.304 0 0 0 651.089 227.257 Q 656.414 220.598 659.4 214.2 L 671.3 204.4 L 677.6 194.6 Q 682.5 193.9 684.6 186.2 Q 686.7 178.5 689.15 169.05 A 41.627 41.627 0 0 1 695.114 155.78 A 39.299 39.299 0 0 1 697.55 152.6 Q 703.144 146.019 713.998 145.625 A 38.691 38.691 0 0 1 715.4 145.6 Q 721.7 145.6 728 149.1 Q 734.3 152.6 734.3 160.3 Q 734.3 163.12 730.891 172.304 A 251.474 251.474 0 0 1 729.05 177.1 Q 725.441 186.244 720.342 197.704 A 867.32 867.32 0 0 1 715.4 208.6 Q 707 226.8 698.25 244.65 Q 690.73 259.99 684.245 272.228 A 671.992 671.992 0 0 1 682.15 276.15 A 466.238 466.238 0 0 1 679.152 281.636 Q 675.134 288.863 672.935 292.032 A 23.543 23.543 0 0 1 672 293.3 Q 671.464 296.516 670.313 301.988 A 546.791 546.791 0 0 1 669.55 305.55 A 27.49 27.49 0 0 1 668.604 308.933 Q 667.332 312.5 665.323 314.067 A 5.74 5.74 0 0 1 663.6 315 Q 652.4 334.6 639.1 351.4 Q 625.8 368.2 613.2 386.4 L 600.6 392 Q 598.5 394.8 596.05 397.6 A 23.966 23.966 0 0 1 591.581 401.548 A 28.012 28.012 0 0 1 590.1 402.5 L 588 401.8 A 116.953 116.953 0 0 1 575.666 414.02 A 96.805 96.805 0 0 1 567.35 420.35 A 41.538 41.538 0 0 1 552.287 426.556 A 58.685 58.685 0 0 1 540.4 427.7 A 44.279 44.279 0 0 1 523.469 424.224 A 58.458 58.458 0 0 1 515.2 420 Q 502.6 412.3 493.85 400.4 A 48.45 48.45 0 0 1 487.888 389.901 A 37.029 37.029 0 0 1 485.1 375.9 Z M 36.4 184.1 L 36.4 183.4 A 24.991 24.991 0 0 1 38.196 181.037 A 31.951 31.951 0 0 1 39.9 179.2 L 44.1 175 L 44.8 173.6 L 44.8 174.3 L 45.5 164.5 A 11.185 11.185 0 0 0 48.551 161.741 Q 50.013 159.867 51.1 157.15 Q 53.2 151.9 56.7 149.1 L 58.8 151.2 A 222.725 222.725 0 0 1 65.335 144.063 A 267.603 267.603 0 0 1 69.65 139.65 A 19.533 19.533 0 0 0 75.599 125.562 A 23.561 23.561 0 0 0 75.6 125.3 Q 79.1 119.7 83.65 115.15 Q 88.2 110.6 92.4 105.7 L 94.5 105.7 A 13.391 13.391 0 0 1 97.223 103.567 A 9.749 9.749 0 0 1 102.2 102.2 L 105 98.7 L 105 91 L 107.8 88.9 A 130.257 130.257 0 0 0 109.681 86.188 Q 111.757 83.12 114.39 78.935 A 472.069 472.069 0 0 0 116.9 74.9 Q 122.5 65.8 122.5 60.9 A 1.741 1.741 0 0 0 121.461 59.235 Q 120.593 58.8 119 58.8 A 17.895 17.895 0 0 0 116.233 59.029 Q 114.879 59.241 113.393 59.651 A 31.89 31.89 0 0 0 112.7 59.85 A 52.612 52.612 0 0 1 111.175 60.285 Q 108.872 60.9 107.8 60.9 L 107.8 57.4 L 143.5 27.3 L 143.5 26.6 Q 152.6 20.3 161 12.95 Q 169.4 5.6 178.5 0 Q 186.2 1.4 195.3 4.55 Q 204.4 7.7 207.9 15.4 L 207.9 24.5 A 322.336 322.336 0 0 0 205.025 27.418 Q 200.037 32.538 191.1 42 A 1891.431 1891.431 0 0 1 179.175 54.505 Q 172.88 61.048 165.83 68.272 A 3163.715 3163.715 0 0 1 163.8 70.35 Q 148.4 86.1 133 101.15 A 732.934 732.934 0 0 1 121.991 111.699 Q 113.269 119.875 106.05 126 Q 94.5 135.8 90.3 136.5 L 81.9 144.2 L 85.4 150.5 L 81.9 157.5 A 14.581 14.581 0 0 0 77.651 159.387 Q 74.293 161.514 70.814 165.685 A 49.99 49.99 0 0 0 70.35 166.25 A 36.144 36.144 0 0 0 67.277 170.631 Q 65.861 173.037 65.142 175.32 A 15.209 15.209 0 0 0 64.4 179.9 A 30.381 30.381 0 0 0 61.374 181.437 Q 57.635 183.63 56.35 186.2 A 53.971 53.971 0 0 1 53.188 191.669 A 61.737 61.737 0 0 1 52.15 193.2 Q 49.7 196.7 39.9 200.2 L 37.8 203.7 L 37.8 219.1 L 40.6 221.2 L 37.1 219.8 L 34.3 225.4 L 32.9 225.4 Q 30.8 232.4 30.8 240.1 L 34.3 248.5 Q 37.004 245.12 44.931 238.149 A 305.555 305.555 0 0 1 45.5 237.65 A 62.909 62.909 0 0 0 48.33 235.029 Q 53.769 229.644 53.2 226.8 L 58.8 221.2 Q 60.9 214.2 68.95 203.35 Q 77 192.5 86.8 183.4 Q 94.64 176.12 100.689 174.664 A 12.433 12.433 0 0 1 103.6 174.3 L 103.6 173.6 L 114.1 174.3 A 21.129 21.129 0 0 1 125.306 188.063 A 30.368 30.368 0 0 1 126 191.1 Q 128.1 203 132.65 218.75 A 60.204 60.204 0 0 0 138.693 232.479 Q 144.118 241.719 153.3 251.3 L 164.5 244.3 L 166.6 244.3 A 17.131 17.131 0 0 1 169.387 241.578 Q 170.826 240.442 172.659 239.394 A 37.998 37.998 0 0 1 175.35 238 A 655.281 655.281 0 0 0 179.566 235.998 Q 181.221 235.205 182.704 234.481 A 337.669 337.669 0 0 0 185.5 233.1 L 186.2 233.8 Q 186.2 236.654 179.45 242.767 A 101.27 101.27 0 0 1 176.05 245.7 Q 165.9 254.1 154.7 261.1 A 196.418 196.418 0 0 1 149.796 264.074 Q 142.891 268.112 139.163 269.327 A 16.058 16.058 0 0 1 138.6 269.5 L 136.5 268.1 L 129.5 269.5 L 127.4 266 Q 110.923 264.023 103.133 257.391 A 22.101 22.101 0 0 1 102.2 256.55 A 39.22 39.22 0 0 1 95.655 248.505 A 32.483 32.483 0 0 1 92.05 240.1 Q 89.6 231 88.2 223.3 A 16.361 16.361 0 0 0 86.937 219.222 A 10.541 10.541 0 0 0 80.5 213.5 A 176.979 176.979 0 0 0 72.595 221.922 A 159.087 159.087 0 0 0 71.4 223.3 Q 67.2 228.2 63 233.8 A 16.971 16.971 0 0 0 58.71 236.635 Q 55.209 239.721 51.821 245.278 A 66.01 66.01 0 0 0 50.75 247.1 A 198.846 198.846 0 0 0 43.586 261.045 A 239.231 239.231 0 0 0 39.55 270.2 Q 34.3 282.8 28 291.9 A 30.222 30.222 0 0 1 24.45 296.196 Q 22.252 298.371 19.903 299.561 A 12.904 12.904 0 0 1 14 301 A 14.207 14.207 0 0 1 9.407 300.308 Q 4.211 298.539 2.45 292.25 A 73.846 73.846 0 0 1 0.786 284.991 Q 0.147 281.314 0.028 278.007 A 41.637 41.637 0 0 1 0 276.5 A 35.231 35.231 0 0 1 0.135 273.703 Q 0.574 268.319 2.45 257.6 Q 4.9 243.6 9.1 230.65 Q 13.3 217.7 18.2 217.7 Q 18.869 210.344 23.371 199.154 A 140.899 140.899 0 0 1 23.8 198.1 A 40.923 40.923 0 0 1 26.557 192.542 Q 30.596 185.847 36.076 184.193 A 12.498 12.498 0 0 1 36.4 184.1 Z M 821.8 133 L 821.8 131.6 Q 830.222 133.405 837.868 141.413 A 55.278 55.278 0 0 1 840.35 144.2 Q 846.01 150.993 848.009 157.199 A 21.475 21.475 0 0 1 849.1 163.8 A 15.961 15.961 0 0 1 847.192 171.15 Q 844.699 175.994 838.95 180.95 A 109.369 109.369 0 0 1 826.398 190.226 A 144.717 144.717 0 0 1 814.45 197.05 A 185.94 185.94 0 0 1 796.786 205.007 A 155.1 155.1 0 0 1 786.45 208.6 A 145.718 145.718 0 0 1 779.243 210.63 Q 770.634 212.8 765.1 212.8 L 765.1 214.2 A 86.858 86.858 0 0 0 761.028 221.382 Q 758.28 226.773 755.65 233.45 Q 751.42 244.188 751.122 253.413 A 43.035 43.035 0 0 0 751.1 254.8 Q 751.1 258.3 753.2 262.5 A 16.583 16.583 0 0 0 759.442 265.187 Q 762.338 265.807 765.8 265.65 Q 772.497 265.346 777.076 265.836 A 37.804 37.804 0 0 1 778.4 266 L 779.1 266.7 L 781.2 263.2 Q 790.3 262.5 798.7 259 L 798.7 254.8 L 802.9 254.8 L 802.9 252.7 L 805.7 253.4 A 23.769 23.769 0 0 0 807.854 252.42 Q 808.881 251.885 809.691 251.306 A 10.009 10.009 0 0 0 810.95 250.25 Q 812.7 248.5 815.5 247.1 L 819.7 249.2 L 819.7 248.5 L 832.3 236.6 L 833 236.6 L 835.1 238 L 835.1 237.3 Q 844.2 228.9 854.7 221.9 Q 865.2 214.9 870.1 203.7 L 877.8 198.1 L 879.2 199.5 A 13.462 13.462 0 0 1 876.8 207.136 A 17.644 17.644 0 0 1 875.7 208.6 A 17.704 17.704 0 0 1 871.05 212.6 A 16.181 16.181 0 0 1 867.3 214.2 Q 861.7 227.5 850.85 236.6 Q 840 245.7 828.8 255.5 L 826.7 255.5 L 826 259 Q 812.7 268.1 798.35 278.6 Q 784 289.1 766.5 289.1 Q 761.132 289.1 753.984 283 A 58.562 58.562 0 0 1 751.45 280.7 A 281.639 281.639 0 0 0 746.289 275.86 Q 740.95 270.988 737.1 268.1 Q 735.7 259 732.2 251.65 Q 728.7 244.3 728.7 235.9 Q 728.7 226.991 733.424 215.808 A 103.761 103.761 0 0 1 738.15 206.15 Q 747.6 189 762.65 172.2 A 208.39 208.39 0 0 1 779.803 155.072 A 165.199 165.199 0 0 1 793.45 144.2 A 82.14 82.14 0 0 1 802.871 138.354 Q 807.82 135.761 812.416 134.423 A 33.567 33.567 0 0 1 821.8 133 Z M 779.8 199.5 L 781.2 199.5 L 781.2 198.1 A 26.525 26.525 0 0 0 783.901 197.136 Q 788.479 195.261 796.572 190.708 A 304.375 304.375 0 0 0 798.35 189.7 Q 810.6 182.7 821.8 174.65 A 123.208 123.208 0 0 0 825.631 171.791 Q 833.131 165.944 833.7 163.1 L 834.4 163.1 L 833.7 159.6 L 834.4 156.1 A 5.044 5.044 0 0 1 834.027 156.083 Q 833.425 156.037 832.322 155.866 A 64.976 64.976 0 0 1 831.6 155.75 Q 830.189 155.515 829.094 155.438 A 14.202 14.202 0 0 0 828.1 155.4 Q 819 161.7 809.9 167.3 L 791.7 178.5 L 790.3 178.5 L 789.6 184.1 Q 785.4 186.9 783.3 190.75 A 39.164 39.164 0 0 0 781.001 195.832 A 49.213 49.213 0 0 0 779.8 199.5 Z M 889 191.8 L 886.2 197.4 L 882 196 L 881.3 191.8 L 888.3 189.7 L 889 191.8 Z M 105 65.8 L 98 67.2 L 97.3 65.1 L 99.4 60.2 L 103.6 60.9 L 105 65.8 Z" vector-effect="non-scaling-stroke"/></g>
  </g>
</svg>