<?xml version="1.0" encoding="utf-8"?>
<svg preserveAspectRatio="xMidYMid meet" data-bbox="93.746 93.748 3000 976.346" viewBox="93.746 93.748 3000 976.346" height="1163.849" width="3187.5" data-type="shape" role="presentation" aria-hidden="true" aria-label="" xmlns="http://www.w3.org/2000/svg" xmlns:bx="https://boxy-svg.com">
  <defs>
    <style bx:fonts="Gwendolyn">@import url(https://fonts.googleapis.com/css2?family=Gwendolyn%3Aital%2Cwght%400%2C400%3B0%2C700&amp;display=swap);</style>
  </defs>
  <g>
    <g xmlns="http://www.w3.org/2000/svg">
      <path d="M902.641 406.883c-8.324 0-13.874 5.55-13.874 13.875V896.66c0 80.473-65.212 144.297-145.685 144.297H267.18c-80.473 0-145.684-65.211-145.684-145.685V420.758c0-80.474 65.21-145.685 145.684-145.685h475.903c22.2 0 43.012 4.163 62.436 13.875 6.938 2.775 15.263 0 18.037-6.937 2.775-6.938 0-15.263-6.937-18.038-23.587-11.1-48.561-16.65-73.536-16.65H267.18c-95.735 0-173.434 77.7-173.434 173.435V896.66c0 95.735 77.699 173.434 173.434 173.434h475.903c95.736 0 173.434-77.699 173.434-173.434V420.758c0-8.325-6.937-13.875-13.875-13.875z"/>
      <path d="M1024.739 96.09c-6.937-4.163-15.262-2.776-19.425 4.162L519.7 848.099 236.655 551.18c-5.55-5.55-13.875-5.55-19.425 0-5.55 5.55-5.55 13.875 0 19.425L512.762 880.01c2.775 2.775 6.937 4.162 9.712 4.162h1.388c4.162 0 8.324-2.775 9.712-6.937l495.327-763.11c4.163-5.55 2.775-13.874-4.162-18.037z"/>
    </g>
    <path d="m1437.71 396.658-86.325 193.396h-46.311l-86.325-193.396h52.98l56.315 129.671 56.685-129.671h52.98zm123.373-2.594c43.717 0 104.107 32.974 92.622 118.187H1513.66c6.669 24.081 26.675 36.678 52.61 36.678 24.081 0 33.344-5.557 47.052-12.967l29.269 28.528c-16.673 17.413-40.384 29.269-78.174 29.269-48.164 0-104.478-32.974-104.478-99.292 0-67.43 57.426-100.403 101.144-100.403zm0 45.2c-19.266 0-39.643 11.856-46.682 35.567h92.622c-5.927-23.711-27.045-35.567-45.94-35.567zm246.005-44.83c4.817 0 9.263 0 14.079 1.112v50.757c-4.446-1.111-8.892-1.111-12.597-1.111-35.567 0-64.836 25.564-68.17 62.613v82.249h-52.98V397.398h52.98v48.164c8.521-29.268 31.862-51.127 66.688-51.127zm200.436 2.224h52.98l-117.816 263.789h-52.98l35.196-77.062-83.36-186.727h52.98l56.315 129.671zm195.99-2.223c36.678 0 72.986 24.081 72.986 84.842v110.777h-52.98V482.982c0-31.492-12.226-42.236-32.603-42.236-28.158 0-44.83 26.675-48.905 40.013v109.295h-52.98V328.117h52.98v104.849c3.705-10.004 24.452-38.531 61.501-38.531zm203.77-.37c43.717 0 100.773 32.973 100.773 100.402s-57.056 99.292-100.774 99.292-101.144-31.863-101.144-99.292 57.426-100.403 101.144-100.403zm0 47.051c-24.083 0-49.647 18.154-49.647 53.351 0 34.085 25.564 52.24 49.646 52.24 23.712 0 49.646-18.155 49.646-52.24 0-35.197-25.934-53.35-49.646-53.35zm385.31-46.681c40.012 0 76.32 25.934 76.32 90.4v105.219h-52.98V485.946c0-26.676-12.226-45.2-39.642-45.2-24.823 0-40.384 21.118-45.2 40.754v108.554h-52.98V485.946c0-26.676-16.672-45.2-39.643-45.2-25.934 0-41.124 18.524-45.2 40.754v108.554h-52.98V397.398h52.98v37.05c1.112-10.004 20.007-40.013 58.538-40.013 27.416 0 54.833 14.82 69.652 43.347 5.187-12.226 27.416-43.347 71.134-43.347zm207.104-.37c43.717 0 104.107 32.973 92.622 118.186h-140.045c6.669 24.081 26.675 36.678 52.61 36.678 24.081 0 33.344-5.557 47.052-12.967l29.269 28.528c-16.673 17.413-40.384 29.269-78.174 29.269-48.164 0-104.478-32.974-104.478-99.292 0-67.43 57.426-100.403 101.144-100.403zm0 45.199c-19.266 0-39.643 11.856-46.682 35.567h92.622c-5.927-23.711-27.045-35.567-45.94-35.567z"/>
    <text style="fill: rgb(72, 70, 109); font-family: Gwendolyn; font-size: 500px; font-weight: 700; letter-spacing: 20px; stroke-width: 0px; white-space: pre;" x="1591.26" y="889.133">hygge</text>
  </g>
</svg>